<svg xmlns="http://www.w3.org/2000/svg" xmlns:xlink="http://www.w3.org/1999/xlink" xmlns:fi="http://pattern.flaticon.com/" x="0" y="0" width="700" height="350" viewBox="0 0 700 350" opacity="0.07"><rect x="0px" y="0px" width="100%" height="100%" opacity="0" fill="#ffffff"/><defs><g transform="matrix(0.1171875 0 0 0.1171875 282 -28)" id="L1_1"><path d="M324.267,42.667c-1.536,0-3.038,0.41-4.361,1.195L4.173,231.595c-3.302,1.963-4.881,5.897-3.866,9.6    c1.016,3.703,4.386,6.272,8.226,6.272h494.933c4.719,0,8.533-3.823,8.533-8.533V230.4C512,126.882,427.785,42.667,324.267,42.667z     M39.586,230.4L326.579,59.75c93.047,1.246,168.354,77.32,168.354,170.65H39.586z"/><path d="M384,273.067c-23.526,0-42.667,19.14-42.667,42.667c0,23.526,19.14,42.667,42.667,42.667    c23.526,0,42.667-19.14,42.667-42.667C426.667,292.207,407.526,273.067,384,273.067z M384,341.333    c-14.114,0-25.6-11.486-25.6-25.6s11.486-25.6,25.6-25.6s25.6,11.486,25.6,25.6S398.114,341.333,384,341.333z"/><rect x="281px" y="273px" width="17px" height="17px"/><rect x="76px" y="358px" width="17px" height="17px"/><rect x="460px" y="358px" width="17px" height="17px"/><rect x="187px" y="307px" width="17px" height="17px"/><path d="M503.467,230.4H8.533c-4.71,0-8.533,3.823-8.533,8.533V307.2c0,4.719,3.823,8.533,8.533,8.533    c18.825,0,34.133,15.309,34.133,34.133C42.667,368.691,27.358,384,8.533,384C3.823,384,0,387.814,0,392.533V460.8    c0,4.719,3.823,8.533,8.533,8.533h290.133c4.719,0,8.533-3.814,8.533-8.533c0-14.114,11.486-25.6,25.6-25.6    c14.114,0,25.6,11.486,25.6,25.6c0,4.719,3.814,8.533,8.533,8.533h136.533c4.719,0,8.533-3.814,8.533-8.533V238.933    C512,234.223,508.186,230.4,503.467,230.4z M494.933,452.267h-120.32c-3.968-19.447-21.205-34.133-41.813-34.133    c-20.608,0-37.837,14.686-41.805,34.133H17.067v-51.908c24.183-4.079,42.667-25.165,42.667-50.492    c0-25.327-18.483-46.413-42.667-50.492v-51.908h477.867V452.267z"/><path d="M204.8,358.4c-18.825,0-34.133,15.309-34.133,34.133c0,18.825,15.309,34.133,34.133,34.133s34.133-15.309,34.133-34.133    C238.933,373.709,223.625,358.4,204.8,358.4z M204.8,409.6c-9.412,0-17.067-7.654-17.067-17.067    c0-9.412,7.654-17.067,17.067-17.067c9.412,0,17.067,7.654,17.067,17.067C221.867,401.946,214.212,409.6,204.8,409.6z"/><rect x="290px" y="366px" width="17px" height="17px"/><path d="M128,273.067c-14.114,0-25.6,11.486-25.6,25.6s11.486,25.6,25.6,25.6s25.6-11.486,25.6-25.6S142.114,273.067,128,273.067z     M128,307.2c-4.702,0-8.533-3.823-8.533-8.533s3.831-8.533,8.533-8.533s8.533,3.823,8.533,8.533S132.702,307.2,128,307.2z"/><rect x="426px" y="401px" width="17px" height="17px"/></g><g transform="matrix(0.11718704551458359 0 0 0.11718704551458359 183 249)" id="L1_2"><path d="M142.536,381.515l-12.067-12.067l-69.711,69.711c-1.604,1.596-2.509,3.772-2.509,6.042c0,2.261,0.896,4.429,2.5,6.033    c9.976,9.984,9.984,26.224,0.017,36.208c-9.976,9.984-26.232,10.01-36.208,0.026c-9.976-9.984-9.984-26.224-0.017-36.208    c4.83-4.839,11.264-7.501,18.1-7.51l-0.017-17.067c-11.392,0.009-22.102,4.446-30.149,12.51    c-16.623,16.649-16.606,43.718,0.034,60.341c8.312,8.312,19.226,12.468,30.149,12.468c10.932-0.008,21.872-4.164,30.183-12.493    c14.558-14.584,16.359-37.155,5.402-53.702L142.536,381.515z"/><rect x="165px" y="320px" width="36px" height="17px" transform="matrix(0.7071 -0.7071 0.7071 0.7071 -178.5835 225.9401)"/><rect x="250px" y="234px" width="36px" height="17px" transform="matrix(0.7071 -0.7071 0.7071 0.7071 -93.2558 261.2839)"/><rect x="310px" y="174px" width="36px" height="17px" transform="matrix(0.7071 -0.7071 0.7071 0.7071 -33.5483 286.0136)"/><rect x="395px" y="89px" width="36px" height="17px" transform="matrix(0.7071 -0.7071 0.7071 0.7071 51.7879 321.361)"/><rect x="451px" y="21px" width="60px" height="17px" transform="matrix(0.7071 -0.7071 0.7071 0.7071 120.0766 349.6391)"/><path d="M509.482,87.839L424.145,2.503c-3.337-3.337-8.73-3.337-12.067,0l-34.134,34.134c-3.337,3.337-3.337,8.73,0,12.067    l85.336,85.336c1.664,1.664,3.849,2.5,6.033,2.5c2.185,0,4.369-0.836,6.033-2.5l34.134-34.134    C512.818,96.569,512.818,91.175,509.482,87.839z M469.314,115.94l-73.27-73.27l22.068-22.068l73.27,73.27L469.314,115.94z"/><path d="M437.714,135.49l-61.186-61.186c-9.677-9.677-26.548-9.66-36.2,0l-35.611,35.602c-9.976,9.976-9.976,26.224,0,36.2    l61.195,61.186c4.83,4.83,11.256,7.493,18.1,7.493c6.835,0,13.27-2.663,18.1-7.484l35.602-35.602    C447.698,161.714,447.698,145.475,437.714,135.49z M425.647,159.623l-35.602,35.594c-3.226,3.226-8.849,3.217-12.067,0    l-61.195-61.186c-3.328-3.328-3.328-8.738,0-12.067l35.619-35.602c3.2-3.209,8.815-3.234,12.058,0l61.186,61.186    C428.975,150.885,428.975,156.295,425.647,159.623z"/><path d="M364.41,232.91l-85.336-85.336c-3.337-3.337-8.73-3.337-12.067,0l-34.134,34.135c-3.337,3.337-3.337,8.73,0,12.067    l85.336,85.336c1.664,1.664,3.849,2.5,6.033,2.5c2.185,0,4.369-0.836,6.033-2.5l34.134-34.135    C367.747,241.64,367.747,236.247,364.41,232.91z M324.242,261.011l-73.27-73.27l22.068-22.068l73.27,73.27L324.242,261.011z"/><path d="M292.642,280.57l-61.186-61.186c-9.993-9.993-26.232-9.984-36.208,0l-35.602,35.602c-4.839,4.83-7.501,11.256-7.501,18.1    c0,6.835,2.662,13.27,7.501,18.1l61.186,61.186c4.992,4.992,11.546,7.484,18.108,7.484c6.554,0,13.108-2.492,18.1-7.484    l35.602-35.602c4.83-4.83,7.501-11.264,7.501-18.1C300.143,291.826,297.472,285.392,292.642,280.57z M280.584,304.695    l-35.602,35.602c-3.337,3.337-8.764,3.328-12.075,0l-61.186-61.186c-1.613-1.613-2.5-3.755-2.5-6.033    c0-2.287,0.887-4.42,2.492-6.025c0-0.009,0-0.009,0-0.009l35.602-35.602c1.673-1.656,3.857-2.492,6.042-2.492    c2.185,0,4.369,0.836,6.042,2.492l61.186,61.195c1.613,1.604,2.5,3.738,2.5,6.025C283.085,300.94,282.189,303.082,280.584,304.695    z"/><path d="M219.339,377.982l-85.336-85.336c-3.337-3.337-8.73-3.337-12.067,0L87.801,326.78c-3.337,3.337-3.337,8.73,0,12.067    l85.336,85.336c1.664,1.664,3.849,2.5,6.033,2.5c2.185,0,4.369-0.836,6.033-2.5l34.135-34.134    C222.675,386.712,222.675,381.318,219.339,377.982z M179.171,406.083l-73.27-73.27l22.068-22.068l73.27,73.27L179.171,406.083z"/><rect x="341px" y="110px" width="17px" height="17px"/><rect x="366px" y="136px" width="17px" height="17px"/><rect x="204px" y="256px" width="17px" height="17px"/></g><g transform="matrix(0.1171875 0 0 0.1171875 -25 97)" id="L1_3"><path d="M509.6,134.869L381.6,2.603c-1.613-1.673-3.627-2.244-6.161-2.603c-2.33,0.009-4.54,0.956-6.144,2.637    C357.817,14.643,350.368,17.51,341.74,20.83c-9.207,3.541-19.644,7.561-33.732,22.357c-14.012,14.72-18.048,25.941-21.606,35.849    c-3.422,9.506-6.366,17.707-17.826,29.781c-11.418,12.032-19.183,15.112-28.186,18.679c-9.498,3.772-20.267,8.038-34.278,22.793    c-13.926,14.677-17.98,25.882-21.547,35.772c-3.439,9.54-6.417,17.783-17.954,29.935c-11.486,12.1-19.243,15.164-28.228,18.722    c-9.446,3.738-20.156,7.97-34.142,22.656c-13.961,14.669-18.005,25.916-21.564,35.831c-3.43,9.549-6.391,17.792-17.869,29.884    c-11.17,11.776-18.722,14.054-27.469,16.708c-9.677,2.927-20.634,6.238-34.978,21.248c-3.123,3.277-3.149,8.422-0.051,11.725    l128,136.533c1.613,1.724,4.139,2.492,6.221,2.697c2.33,0,4.557-0.947,6.17-2.654c11.554-12.092,19.055-15.164,27.75-18.722    c9.148-3.746,19.516-7.996,33.519-22.656c14.029-14.694,18.039-25.95,21.581-35.883c3.388-9.506,6.323-17.724,17.766-29.747    c11.409-11.989,19.166-15.07,28.16-18.645c9.506-3.789,20.284-8.073,34.313-22.844c13.935-14.686,17.98-25.899,21.538-35.78    c3.439-9.515,6.391-17.732,17.886-29.833c11.426-12.049,19.209-15.121,28.211-18.679c9.498-3.746,20.25-7.996,34.244-22.699    c13.935-14.643,17.988-25.873,21.564-35.789c3.447-9.557,6.417-17.809,17.946-29.918c11.469-12.041,19.217-15.121,28.186-18.688    c9.472-3.763,20.198-8.03,34.27-22.767C512.799,143.386,512.782,138.163,509.6,134.869z M469.058,153.6    c-9.464,3.763-20.19,8.03-34.244,22.784c-13.995,14.711-18.057,25.967-21.632,35.9c-3.439,9.54-6.4,17.766-17.877,29.815    c-11.401,11.972-19.157,15.044-28.143,18.594c-9.515,3.763-20.284,8.021-34.321,22.801    c-13.943,14.686-17.988,25.899-21.547,35.789c-3.439,9.515-6.391,17.732-17.877,29.824    c-11.443,12.058-19.226,15.147-28.237,18.731c-9.489,3.763-20.233,8.038-34.219,22.733    c-13.952,14.643-17.954,25.882-21.487,35.789c-3.396,9.532-6.323,17.766-17.843,29.824    c-11.486,12.032-18.978,15.095-27.648,18.654c-7.706,3.157-16.282,6.673-27.17,16.452L20.537,367.258    c8.218-7.04,14.575-8.969,21.734-11.128c9.66-2.927,20.625-6.238,34.901-21.291c13.943-14.694,17.988-25.941,21.547-35.857    c3.43-9.54,6.391-17.784,17.869-29.841c11.392-11.964,19.115-15.019,28.058-18.551c9.489-3.755,20.25-8.013,34.33-22.844    c13.995-14.746,18.057-25.984,21.632-35.891c3.439-9.523,6.409-17.732,17.877-29.824c11.418-12.023,19.191-15.104,28.186-18.671    c9.506-3.763,20.267-8.03,34.287-22.793c13.926-14.677,17.954-25.873,21.504-35.755c3.43-9.523,6.374-17.741,17.92-29.858    c11.435-12.015,18.876-14.874,27.494-18.193c7.765-2.995,16.418-6.315,27.401-16.154l116.13,119.996    C482.95,148.079,476.413,150.673,469.058,153.6z"/><path d="M403.436,36.779c-11.477,12.006-18.927,14.874-27.554,18.193c-9.207,3.541-19.644,7.561-33.732,22.357    c-14.012,14.72-18.048,25.941-21.606,35.849c-3.422,9.506-6.366,17.707-17.826,29.781c-11.418,12.032-19.191,15.113-28.186,18.68    c-9.506,3.772-20.275,8.038-34.287,22.792c-13.926,14.677-17.98,25.882-21.547,35.772c-3.439,9.54-6.417,17.784-17.954,29.935    c-11.486,12.1-19.243,15.164-28.228,18.714c-9.446,3.729-20.156,7.962-34.142,22.656c-13.961,14.669-18.005,25.916-21.564,35.831    c-3.43,9.549-6.391,17.792-17.869,29.884c-11.17,11.776-18.722,14.054-27.469,16.708c-9.677,2.927-20.634,6.238-34.978,21.248    l12.339,11.776c11.238-11.75,18.807-14.046,27.571-16.683c9.66-2.927,20.625-6.238,34.901-21.291    c13.943-14.694,17.988-25.941,21.547-35.857c3.43-9.54,6.391-17.784,17.869-29.841c11.392-11.972,19.123-15.019,28.058-18.551    c9.489-3.755,20.25-8.013,34.33-22.844c13.995-14.746,18.057-25.984,21.632-35.891c3.439-9.523,6.409-17.732,17.877-29.824    c11.418-12.023,19.183-15.104,28.186-18.671c9.506-3.763,20.267-8.03,34.287-22.793c13.926-14.677,17.954-25.873,21.504-35.755    c3.43-9.523,6.374-17.741,17.92-29.858c11.435-12.015,18.876-14.874,27.494-18.193c9.207-3.541,19.652-7.56,33.758-22.332    L403.436,36.779z"/><path d="M463.17,96.503c-11.477,12.006-18.927,14.874-27.554,18.193c-9.207,3.541-19.644,7.561-33.732,22.357    c-14.012,14.72-18.048,25.941-21.606,35.849c-3.422,9.506-6.366,17.707-17.826,29.781c-11.418,12.032-19.191,15.113-28.186,18.68    c-9.506,3.772-20.267,8.038-34.287,22.792c-13.918,14.677-17.971,25.882-21.538,35.763c-3.448,9.54-6.417,17.783-17.963,29.943    c-11.486,12.1-19.243,15.164-28.228,18.714c-9.446,3.729-20.156,7.962-34.142,22.656c-13.961,14.669-18.005,25.916-21.564,35.831    c-3.43,9.549-6.391,17.792-17.869,29.884c-11.17,11.776-18.722,14.054-27.469,16.708c-9.677,2.927-20.634,6.238-34.978,21.248    l12.339,11.784c11.238-11.75,18.807-14.046,27.563-16.7c9.66-2.927,20.625-6.238,34.901-21.291    c13.943-14.694,17.988-25.941,21.547-35.857c3.43-9.54,6.391-17.784,17.869-29.841c11.392-11.972,19.123-15.019,28.058-18.551    c9.489-3.755,20.258-8.013,34.338-22.844c13.995-14.746,18.057-25.984,21.632-35.891c3.439-9.506,6.4-17.724,17.877-29.816    c11.418-12.023,19.183-15.104,28.186-18.671c9.506-3.763,20.267-8.03,34.287-22.793c13.926-14.677,17.954-25.873,21.504-35.755    c3.43-9.523,6.374-17.741,17.92-29.858c11.435-12.015,18.876-14.874,27.494-18.193c9.207-3.541,19.652-7.56,33.758-22.332    L463.17,96.503z"/></g><g transform="matrix(0.1171875 0 0 0.1171875 180.00000672340389 12)" id="L1_4"><path d="M188.275,157.013V8.533c0-4.71-3.823-8.533-8.533-8.533h-51.2c-4.71,0-8.533,3.823-8.533,8.533v148.48    c-31.727,17.954-51.209,51.2-51.2,87.979v258.475c0,4.719,3.823,8.533,8.533,8.533h153.6c4.71,0,8.533-3.814,8.533-8.533V245.001    C239.483,208.213,220.002,174.967,188.275,157.013z M222.408,494.933H85.875V244.992c-0.017-32.06,17.801-60.885,46.481-75.221    c2.893-1.451,4.719-4.403,4.719-7.637V17.067h34.133v145.067c0,3.234,1.826,6.195,4.719,7.637    c28.681,14.327,46.49,43.153,46.481,75.221V494.933z"/><rect x="128px" y="42px" width="51px" height="17px"/><path d="M442.397,276.207l-15.275-106.752c-0.597-4.198-4.198-7.322-8.448-7.322h-102.4c-4.241,0-7.842,3.123-8.456,7.322    l-15.266,106.283c-1.451,9.728-0.922,19.482,1.502,28.817l1.485,6.255c8.277,33.041,37.854,56.115,71.919,56.124    c0.051,0,0.085,0,0.128,0c33.843,0,63.369-22.869,71.851-55.808l1.399-5.956C443.319,295.646,443.839,285.884,442.397,276.207z     M424.281,301.056l-1.408,5.973c-6.502,25.233-29.227,42.837-55.287,42.837c-0.043,0-0.077,0-0.111,0    c-26.232,0-49.007-17.766-55.347-43.093l-1.502-6.332c-1.903-7.279-2.295-14.746-1.178-22.229l14.217-99.012h87.612l14.242,99.473    C426.628,286.114,426.235,293.581,424.281,301.056z"/><rect x="358px" y="358px" width="17px" height="110px"/><path d="M384.541,460.8h-34.133c-23.526,0-42.667,19.14-42.667,42.667c0,4.719,3.814,8.533,8.533,8.533h102.4    c4.719,0,8.533-3.814,8.533-8.533C427.208,479.94,408.068,460.8,384.541,460.8z M326.267,494.933    c3.524-9.933,13.022-17.067,24.141-17.067h34.133c11.127,0,20.617,7.134,24.141,17.067H326.267z"/><rect x="299px" y="281px" width="136px" height="17px"/><rect x="128px" y="119px" width="51px" height="17px"/><path d="M196.808,264.533h-85.333c-4.71,0-8.533,3.814-8.533,8.533v153.6c0,4.719,3.823,8.533,8.533,8.533h85.333    c4.71,0,8.533-3.814,8.533-8.533v-153.6C205.341,268.348,201.518,264.533,196.808,264.533z M188.275,418.133h-68.267V281.6h68.267    V418.133z"/></g><g transform="matrix(0.1171875 0 0 0.1171875 300 216)" id="L1_5"><path d="M365.667,0C310.61,0,260.759,30.408,235.316,79.91L128.753,329.392c-1.374,3.199-0.657,6.919,1.809,9.385l42.66,42.66    c1.63,1.63,3.814,2.5,6.032,2.5c1.101,0,2.218-0.213,3.268-0.657l253.662-105.625c0.307-0.128,0.597-0.264,0.879-0.427    c46.234-25.801,74.944-74.722,74.927-127.663v-3.242C511.989,65.636,446.353,0,365.667,0z M494.934,149.573    c0.017,46.601-25.169,89.67-65.764,112.527L181.25,365.336l-34.546-34.546l104.038-243.62    c22.251-43.248,66.284-70.107,114.925-70.107c71.276,0,129.267,57.983,129.267,129.267V149.573z"/><path d="M185.277,381.436l-12.064-12.064L98.814,443.77c-2.918,2.918-3.327,7.525-0.964,10.912    c3.029,4.343,4.624,9.436,4.616,14.718c-0.034,14.086-11.51,25.536-25.596,25.536c-0.017,0-0.043,0-0.06,0    c-14.112-0.034-25.57-11.552-25.536-25.664c0-2.269-0.896-4.445-2.5-6.049c-1.596-1.604-3.771-2.5-6.032-2.5    c-0.043-0.009-0.06-0.009-0.085,0c-5.264,0-10.332-1.596-14.641-4.607c-11.569-8.08-14.41-24.069-6.339-35.638    c8.088-11.569,24.068-14.419,35.638-6.339c3.396,2.363,7.994,1.962,10.912-0.964l74.398-74.398l-12.064-12.064l-69.791,69.791    c-18.446-8.677-41.047-3.046-53.094,14.214c-13.463,19.291-8.728,45.936,10.563,59.399c5.051,3.524,10.716,5.878,16.671,6.971    C38.562,496.881,55.924,511.94,76.768,512c0.034,0,0.068,0,0.094,0c23.48,0,42.608-19.077,42.66-42.566    c0.017-6.356-1.365-12.542-4.036-18.207L185.277,381.436z"/><path d="M349.857,154.351C361.162,29.981,314.1,18.13,308.699,17.192l-3.182,16.765c0.375,0.085,37.225,10.221,27.345,118.85    c-8.839,97.195,43.462,141.98,45.688,143.839l10.946-13.088C387.56,281.911,341.871,242.17,349.857,154.351z"/><path d="M418.147,85.319c-23.522,0-42.66,19.137-42.66,42.66c0,23.522,19.137,42.66,42.66,42.66    c23.514,0,42.66-19.137,42.66-42.66C460.806,104.456,441.669,85.319,418.147,85.319z M418.147,153.574    c-14.112,0-25.596-11.484-25.596-25.596c0-14.112,11.484-25.596,25.596-25.596c14.112,0,25.596,11.484,25.596,25.596    C443.742,142.09,432.258,153.574,418.147,153.574z"/></g><g transform="matrix(0.1171875 0 0 0.1171875 84 63.99999673843388)" id="L1_6"><path d="M467.627,312.326c-36.335-27.264-58.027-70.647-58.027-116.062v-8.533c0-14.114-11.486-25.6-25.6-25.6h-39.424    c-10.564,0-20.181,6.63-23.936,16.503l-45.824,120.303c-12.501,32.734-18.833,67.098-18.816,102.127    c0,61.167,49.766,110.933,110.933,110.933h34.133c61.167,0,110.933-49.766,110.933-110.933    C512,366.325,495.411,333.156,467.627,312.326z M401.067,494.931h-34.133c-51.755,0-93.867-42.112-93.867-93.875    c-0.017-32.939,5.931-65.254,17.698-96.034l45.824-120.311c0-0.008,0-0.008,0-0.008c1.254-3.294,4.463-5.504,7.987-5.504H384    c4.71,0,8.533,3.831,8.533,8.533v8.533c0,50.756,24.243,99.251,64.862,129.707c23.501,17.638,37.538,45.705,37.538,75.093    C494.933,452.819,452.821,494.931,401.067,494.931z"/><path d="M396.194,279.49c-8.311-18.091-11.793-36.881-14.592-51.985c-1.604-8.713-2.884-15.607-4.813-20.796    c-2.381-6.238-8.465-10.436-15.087-10.445c-0.043,0-0.077,0-0.111,0c-6.716,0-12.783,4.215-15.087,10.445l-28.331,74.342    c-5.009,13.193,1.647,28.006,14.848,33.015c2.901,1.109,5.965,1.664,9.079,1.664h30.379c0.154,0,0.299,0,0.444,0    c6.639,0,12.919-2.517,17.715-7.125c4.932-4.736,7.723-11.11,7.868-17.954C398.584,286.829,397.79,282.972,396.194,279.49z     M378.82,296.292c-1.596,1.536-3.686,2.372-5.905,2.372c-0.119,0-0.23,0-0.35,0h-30.464c-1.041,0-2.065-0.188-3.029-0.555    c-4.403-1.673-6.622-6.613-4.958-10.999l27.452-72.021c1.092,3.849,2.108,9.344,3.26,15.531    c2.807,15.181,6.665,35.976,15.846,55.979c0.529,1.161,0.794,2.449,0.768,3.712C381.397,292.589,380.459,294.713,378.82,296.292z"/><path d="M477.816,393.581c-2.534-23.501-20.975-60.783-59.682-60.783H357.12c-36.608,0-66.662,29.781-66.987,66.475v1.212    c-0.145,20.523,7.689,39.859,22.084,54.477c14.396,14.618,33.621,22.741,54.716,22.903h34.091c0.128,0,0.247,0,0.367,0    c20.378,0,39.561-7.893,54.042-22.238c14.575-14.447,22.656-33.698,22.75-54.212C478.191,398.82,478.072,396.235,477.816,393.581z     M443.426,443.501c-11.332,11.23-26.103,17.596-42.359,17.297v0.008h-34.586c-32.939-0.256-59.529-27.247-59.281-60.245v-1.212    c0.247-27.281,22.639-49.485,49.92-49.485h61.013c30.857,0,41.438,33.732,42.709,45.474c0.196,1.997,0.282,4.011,0.273,6.007    C461.039,417.303,454.758,432.271,443.426,443.501z"/><path d="M110.933,494.931c-51.755,0-93.867-42.112-93.867-93.875c-0.017-32.947,5.931-65.254,17.707-96.034l45.824-120.32    c1.246-3.294,4.454-5.504,7.979-5.504h252.757v-17.067H88.576c-10.564,0-20.19,6.639-23.936,16.503L18.825,298.937    C6.315,331.663-0.017,366.035,0,401.064c0,61.167,49.766,110.933,110.933,110.933H358.4v-17.067H110.933z"/><path d="M460.075,13.634c-1.067-2.415-3.183-4.198-5.743-4.838l-34.133-8.533c-3.328-0.828-6.869,0.418-8.926,3.2l-6.195,8.363    c-35.695,45.858-60.638,100.198-72.115,157.158l16.734,3.371c10.948-54.383,34.756-106.266,68.975-150.212l2.927-3.942    l17.937,4.48l-3.755,6.963c-28.331,40.61-48.145,85.709-58.889,133.965l-1.195,5.12l16.614,3.866l1.212-5.188    c10.3-46.31,29.312-89.498,56.516-128.375c0.196-0.273,0.358-0.546,0.521-0.836l9.216-17.067    C461.022,18.814,461.141,16.04,460.075,13.634z"/><path d="M374.741,13.634c-1.067-2.415-3.183-4.198-5.743-4.838l-34.133-8.533c-3.311-0.828-6.869,0.418-8.926,3.2l-6.195,8.363    c-35.695,45.858-60.638,100.198-72.115,157.158l16.734,3.371c10.948-54.383,34.756-106.266,68.975-150.212l2.927-3.942    l17.937,4.48l-3.755,6.963c-28.331,40.61-48.145,85.709-58.889,133.965l-1.195,5.12l16.614,3.866l1.212-5.188    c10.3-46.31,29.312-89.498,56.516-128.375c0.196-0.273,0.358-0.546,0.521-0.836l9.216-17.067    C375.689,18.814,375.808,16.04,374.741,13.634z"/><path d="M289.408,13.625c-1.067-2.415-3.183-4.198-5.743-4.838l-34.133-8.533c-3.354-0.828-6.869,0.427-8.926,3.2l-6.195,8.363    c-35.695,45.85-60.638,100.198-72.115,157.158l16.734,3.379c10.957-54.391,34.765-106.274,68.975-150.212l2.927-3.942l17.937,4.48    l-3.755,6.963c-28.339,40.619-48.154,85.709-58.889,133.956l-1.195,5.12l16.614,3.883l1.212-5.205    c10.3-46.302,29.312-89.498,56.516-128.375c0.196-0.273,0.358-0.546,0.521-0.836l9.216-17.067    C290.355,18.805,290.475,16.032,289.408,13.625z"/><path d="M204.075,13.625c-1.058-2.415-3.183-4.198-5.734-4.838l-34.133-8.533c-3.354-0.828-6.869,0.427-8.926,3.2l-6.195,8.363    c-35.695,45.85-60.638,100.198-72.115,157.158l16.734,3.379c10.957-54.391,34.765-106.274,68.975-150.212l2.927-3.942l17.937,4.48    l-3.763,6.963c-28.339,40.619-48.154,85.709-58.889,133.956l-1.195,5.12l16.614,3.883l1.212-5.205    c10.3-46.302,29.312-89.498,56.516-128.375c0.188-0.273,0.367-0.546,0.521-0.836l9.216-17.067    C205.03,18.805,205.141,16.032,204.075,13.625z"/></g><g transform="matrix(0.1171875 0 0 0.1171875 54 187)" id="L1_7"><path d="M251.733,102.4c-56.465,0-102.4,45.935-102.4,102.4c0,4.71,3.823,8.533,8.533,8.533H345.6    c4.719,0,8.533-3.823,8.533-8.533C354.133,148.335,308.198,102.4,251.733,102.4z M166.827,196.267    c4.292-43.059,40.738-76.8,84.907-76.8c44.177,0,80.614,33.741,84.907,76.8H166.827z"/><path d="M251.733,34.133c-23.526,0-42.667,19.14-42.667,42.667c0,23.526,19.14,42.667,42.667,42.667    c23.526,0,42.667-19.14,42.667-42.667C294.4,53.274,275.26,34.133,251.733,34.133z M251.733,102.4    c-14.114,0-25.6-11.486-25.6-25.6s11.486-25.6,25.6-25.6s25.6,11.486,25.6,25.6S265.847,102.4,251.733,102.4z"/><path d="M243.2,42.667h17.067c0-14.114,11.486-25.6,25.6-25.6V0C262.34,0,243.2,19.14,243.2,42.667z"/><path d="M294.4,128v59.733c0,4.702-3.823,8.533-8.533,8.533s-8.533-3.831-8.533-8.533v-25.6c0-14.114-11.486-25.6-25.6-25.6    s-25.6,11.486-25.6,25.6c0,4.702-3.831,8.533-8.533,8.533c-4.702,0-8.533-3.831-8.533-8.533V128H192v34.133    c0,14.114,11.486,25.6,25.6,25.6c14.114,0,25.6-11.486,25.6-25.6c0-4.702,3.831-8.533,8.533-8.533    c4.702,0,8.533,3.831,8.533,8.533v25.6c0,14.114,11.486,25.6,25.6,25.6s25.6-11.486,25.6-25.6V128H294.4z"/><path d="M388.267,196.267H123.733c-4.71,0-8.533,3.823-8.533,8.533v34.133c0,3.908,2.662,7.322,6.451,8.277    c18.253,4.591,32.853,18.679,38.118,36.847l27.665,92.049c9.327,30.251,36.847,50.56,68.489,50.56c0.026,0,0.06,0,0.085,0    c31.846-0.017,59.409-20.54,68.574-51.029l27.682-91.656c5.231-18.091,19.823-32.171,38.084-36.77    c3.789-0.956,6.451-4.369,6.451-8.277V204.8C396.8,200.09,392.986,196.267,388.267,196.267z M379.733,232.619    c-21.069,7.535-37.581,24.883-43.836,46.515l-27.656,91.571c-6.98,23.245-27.981,38.869-52.25,38.895c-0.026,0-0.043,0-0.068,0    c-24.107,0-45.082-15.471-52.164-38.46l-27.622-91.913c-6.298-21.717-22.801-39.074-43.87-46.609v-19.285h247.467V232.619z"/><path d="M277.333,460.8h-51.2c-23.526,0-42.667,19.14-42.667,42.667c0,4.719,3.823,8.533,8.533,8.533h119.467    c4.719,0,8.533-3.814,8.533-8.533C320,479.94,300.86,460.8,277.333,460.8z M201.993,494.933    c3.524-9.933,13.013-17.067,24.141-17.067h51.2c11.127,0,20.617,7.134,24.141,17.067H201.993z"/><rect x="243px" y="418px" width="17px" height="51px"/><path d="M322.5,232.9l-12.791,12.792c-8.448,8.414-22.17,8.414-30.618,0c-15.078-15.053-39.629-15.053-54.716,0    c-8.431,8.414-22.17,8.414-30.609,0.009l-12.8-12.8L168.9,244.966l12.809,12.809c7.543,7.526,17.451,11.281,27.358,11.281    c9.907,0,19.814-3.755,27.358-11.281c8.448-8.405,22.17-8.414,30.618,0c15.078,15.053,39.62,15.044,54.724-0.009l12.8-12.8    L322.5,232.9z"/></g><g transform="matrix(0.1171875 0 0 0.1171875 229.0000029039379 98)" id="L1_8"><path d="M377.492,225.627h-43.39v17.356h43.39v156.203h-43.39v17.356h43.39c9.572,0,17.356-7.784,17.356-17.356V242.983    C394.847,233.411,387.063,225.627,377.492,225.627z"/><path d="M386.169,190.915h-52.068v17.356h52.068c14.353,0,26.034,11.681,26.034,26.034v173.559    c0,14.353-11.681,26.034-26.034,26.034h-52.068v17.356h52.068c23.925,0,43.39-19.465,43.39-43.39V234.305    C429.559,210.38,410.095,190.915,386.169,190.915z"/><rect x="91px" y="451px" width="242px" height="17px"/><rect x="177px" y="173px" width="156px" height="17px"/><rect x="91px" y="173px" width="52px" height="17px"/><path d="M212.61,208.271c-14.353,0-26.034,11.681-26.034,26.034v173.559c0,14.353,11.681,26.034,26.034,26.034    s26.034-11.681,26.034-26.034V234.305C238.644,219.952,226.964,208.271,212.61,208.271z M221.288,407.864    c0,4.79-3.896,8.678-8.678,8.678s-8.678-3.888-8.678-8.678V234.305c0-4.782,3.896-8.678,8.678-8.678s8.678,3.896,8.678,8.678    V407.864z"/><path d="M282.034,208.271c-14.353,0-26.034,11.681-26.034,26.034v173.559c0,14.353,11.681,26.034,26.034,26.034    c14.353,0,26.034-11.681,26.034-26.034V234.305C308.068,219.952,296.387,208.271,282.034,208.271z M290.712,407.864    c0,4.79-3.888,8.678-8.678,8.678c-4.79,0-8.678-3.888-8.678-8.678V234.305c0-4.782,3.888-8.678,8.678-8.678    s8.678,3.896,8.678,8.678V407.864z"/><path d="M143.186,208.271c-14.353,0-26.034,11.681-26.034,26.034v173.559c0,14.353,11.681,26.034,26.034,26.034    c14.353,0,26.034-11.681,26.034-26.034V234.305C169.22,219.952,157.54,208.271,143.186,208.271z M151.864,407.864    c0,4.79-3.896,8.678-8.678,8.678s-8.678-3.888-8.678-8.678V234.305c0-4.782,3.896-8.678,8.678-8.678s8.678,3.896,8.678,8.678    V407.864z"/><path d="M290.712,60.746H256C256,27.249,228.751,0,195.254,0c-33.497,0-60.746,27.249-60.746,60.746    c-28.715,0-52.068,23.352-52.068,52.068h17.356c0-19.144,15.568-34.712,34.712-34.712h8.678c4.79,0,8.678-3.888,8.678-8.678    v-8.678c0-23.925,19.465-43.39,43.39-43.39c23.925,0,43.39,19.465,43.39,43.39v8.678c0,4.79,3.888,8.678,8.678,8.678h43.39    c19.144,0,34.712,15.568,34.712,34.712h17.356C342.78,84.098,319.427,60.746,290.712,60.746z"/><path d="M334.102,130.169H177.898c-4.79,0-8.678,3.888-8.678,8.678v52.068c0,4.782-3.896,8.678-8.678,8.678    s-8.678-3.896-8.678-8.678v-78.102h-17.356v17.356h-43.39c-4.79,0-8.678,3.888-8.678,8.678v364.475    c0,4.799,3.888,8.678,8.678,8.678h242.983c4.799,0,8.678-3.879,8.678-8.678V138.847    C342.78,134.057,338.901,130.169,334.102,130.169z M325.424,494.644H99.797V147.525h34.712v43.39    c0,14.353,11.681,26.034,26.034,26.034c14.353,0,26.034-11.681,26.034-26.034v-43.39h138.847V494.644z"/></g><g transform="matrix(0.1171875 0 0 0.1171875 62.00000489234935 307)" id="L1_10"><path d="M389.628,228.343c7.561-42.871-18.756-85.367-61.577-97.067c-25.6-6.972-52.582-1.749-73.574,13.969    c-16.085-12.066-35.772-18.031-56.004-16.845c-22.75,1.306-43.639,11.401-58.803,28.416    c-17.519,19.661-24.866,45.918-20.343,71.526c-18.398,7.561-33.434,21.188-42.846,38.997    c-10.65,20.147-12.817,43.238-6.093,65.024c11.11,36.011,43.853,60.177,81.51,60.177c7.808,0.043,15.906-1.101,23.578-3.319    c20.036,24.32,49.399,37.197,79.13,37.197c20.855,0,41.907-6.34,60.049-19.516c7.006-5.094,13.312-11.034,18.807-17.69    c7.612,2.202,15.454,3.319,23.39,3.319c0.06,0,0.102,0,0.162,0c22.733,0,44.117-8.832,60.245-24.875    c16.137-16.077,25.054-37.495,25.096-60.288C442.424,272.299,421.534,241.459,389.628,228.343z M405.201,355.55    c-12.877,12.843-29.986,19.908-48.196,19.908c-8.098,0.137-16.017-1.417-23.612-4.241c-3.584-1.306-7.629-0.12-9.882,2.987    c-5.265,7.262-11.622,13.619-18.884,18.884c-38.059,27.665-91.537,19.208-119.194-18.884c-1.647-2.261-4.241-3.516-6.912-3.516    c-0.99,0-1.997,0.179-2.978,0.538c-7.552,2.816-15.454,4.241-23.492,4.241c-0.051,0-0.094,0-0.137,0    c-30.131,0-56.337-19.336-65.212-48.145c-5.376-17.425-3.652-35.9,4.872-52.028c8.516-16.111,22.81-27.955,40.235-33.331    c4.403-1.357,6.929-5.956,5.717-10.402c-6.11-22.383-0.546-46.08,14.891-63.403c12.134-13.619,28.843-21.692,47.044-22.741    c18.167-1.016,35.721,5.06,49.34,17.195c3.243,2.884,8.115,2.884,11.358,0c17.323-15.437,41.003-21.009,63.394-14.891    c36.318,9.916,57.788,47.531,47.872,83.84c-1.212,4.437,1.314,9.045,5.717,10.402c28.86,8.9,48.205,35.166,48.145,65.357    C425.255,325.547,418.121,342.682,405.201,355.55z"/><path d="M288.602,409.6v85.333h-68.267V409.6h-17.067v93.867c0,4.719,3.823,8.533,8.533,8.533h85.333    c4.719,0,8.533-3.814,8.533-8.533V409.6H288.602z"/><rect x="263px" y="460px" width="34px" height="17px"/><rect x="211px" y="443px" width="25px" height="17px"/><rect x="245px" y="375px" width="17px" height="17px"/><rect x="245px" y="307px" width="17px" height="17px"/><rect x="211px" y="324px" width="17px" height="17px"/><rect x="211px" y="358px" width="17px" height="17px"/><rect x="280px" y="358px" width="17px" height="17px"/><rect x="194px" y="238px" width="17px" height="17px"/><rect x="194px" y="170px" width="17px" height="17px"/><rect x="160px" y="187px" width="17px" height="17px"/><rect x="297px" y="238px" width="17px" height="17px"/><rect x="263px" y="187px" width="17px" height="17px"/><rect x="331px" y="187px" width="17px" height="17px"/><rect x="263px" y="221px" width="17px" height="17px"/><rect x="297px" y="204px" width="17px" height="17px"/><rect x="143px" y="264px" width="17px" height="17px"/><rect x="109px" y="281px" width="17px" height="17px"/><rect x="109px" y="315px" width="17px" height="17px"/><rect x="177px" y="315px" width="17px" height="17px"/><rect x="143px" y="298px" width="17px" height="17px"/><rect x="348px" y="332px" width="17px" height="17px"/><rect x="348px" y="264px" width="17px" height="17px"/><rect x="382px" y="281px" width="17px" height="17px"/><rect x="314px" y="315px" width="17px" height="17px"/><rect x="382px" y="315px" width="17px" height="17px"/><path d="M114.684,136.533H35.896c-9.148-0.102-17.715,3.43-24.201,9.83c-6.494,6.4-10.103,14.95-10.163,24.055    c-0.009,1.417,0.068,2.833,0.239,4.25L38.2,478.797C40.29,497.724,56.222,512,75.269,512c19.038,0,34.978-14.268,37.069-33.186    l-16.964-1.886c-1.135,10.266-9.779,18.005-20.105,18.005c-10.325,0-18.97-7.74-20.104-18.082L18.727,172.646    c-0.085-0.691-0.119-1.391-0.119-2.099c0.026-4.557,1.835-8.832,5.077-12.032c3.251-3.2,7.748-5.009,12.16-4.915h78.839    c9.412,0,17.067,7.654,17.067,17.067h17.067C148.817,151.842,133.509,136.533,114.684,136.533z"/><path d="M107.67,374.451L95.373,476.928c-1.135,10.266-9.779,18.005-20.105,18.005V512c19.038,0,34.978-14.268,37.052-33.118    l12.288-102.4L107.67,374.451z"/><rect x="19px" y="7px" width="17px" height="138px" transform="matrix(0.9829 -0.1843 0.1843 0.9829 -13.6696 6.5377)"/><rect x="52px" y="68px" width="138px" height="17px" transform="matrix(0.1841 -0.9829 0.9829 0.1841 24.2183 182.7803)"/><rect x="66px" y="0px" width="17px" height="119px"/><rect x="15px" y="187px" width="42px" height="17px"/><rect x="24px" y="238px" width="25px" height="17px"/><rect x="32px" y="341px" width="34px" height="17px"/><rect x="75px" y="392px" width="42px" height="17px"/><rect x="49px" y="443px" width="17px" height="17px"/><rect x="75px" y="187px" width="25px" height="17px"/><path d="M408.069,0c-56.465,0-102.4,45.935-102.4,102.4v34.133h17.067V102.4c0-47.053,38.281-85.333,85.333-85.333    s85.333,38.281,85.333,85.333v213.342c0.017,25.071-9.737,48.657-27.46,66.415l-57.882,58.035l-57.685-57.6l-1.033-1.084    c-0.845-0.87-1.69-1.758-2.458-2.688l-13.15,10.88c1.024,1.237,2.15,2.424,3.26,3.593l65.041,65.015    c1.596,1.596,3.772,2.492,6.033,2.492c2.278,0,4.446-0.896,6.042-2.509l63.915-64.085c20.941-20.975,32.461-48.836,32.444-78.473    V102.4C510.469,45.935,464.534,0,408.069,0z"/><rect x="399px" y="366px" width="17px" height="145px"/><rect x="399px" y="59px" width="17px" height="187px"/><path d="M453.236,79.3l-45.167,45.167L362.902,79.3l-12.066,12.066l51.2,51.2c1.664,1.664,3.849,2.5,6.033,2.5    c2.185,0,4.369-0.836,6.033-2.5l51.2-51.2L453.236,79.3z"/><rect x="397px" y="332px" width="72px" height="17px" transform="matrix(0.7071 -0.7071 0.7071 0.7071 -114.3391 406.6248)"/><path d="M453.236,156.1l-45.167,45.167l-28.1-28.1l-12.066,12.066l34.133,34.133c1.664,1.664,3.849,2.5,6.033,2.5    c2.185,0,4.369-0.836,6.033-2.5l51.2-51.2L453.236,156.1z"/><rect x="418px" y="247px" width="48px" height="17px" transform="matrix(0.7071 -0.7071 0.7071 0.7071 -51.5176 387.638)"/></g><g transform="matrix(0.1171875 0 0 0.1171875 145 161)" id="L1_12"><path d="M503.467,452.267H8.533c-4.71,0-8.533,3.814-8.533,8.533C0,489.037,22.963,512,51.2,512h409.6    c28.237,0,51.2-22.963,51.2-51.2C512,456.081,508.186,452.267,503.467,452.267z M460.8,494.933H51.2    c-15.872,0-29.252-10.889-33.058-25.6H493.85C490.061,484.045,476.672,494.933,460.8,494.933z"/><path d="M465.033,293.734c-1.596-2.261-4.198-3.601-6.963-3.601H53.931c-2.765,0-5.376,1.348-6.972,3.601    c-1.596,2.253-1.997,5.146-1.084,7.757l44.979,128.017c8.422,23.825,31.053,39.825,56.32,39.825c0.009,0,0.026,0,0.026,0h217.6    c0.008,0,0.008,0,0.017,0c25.276,0,47.906-16,56.329-39.842l44.971-128C467.029,298.889,466.628,295.996,465.033,293.734z     M405.06,423.825c-6.016,17.016-22.187,28.442-40.243,28.442c0,0-0.009,0-0.017,0H147.2c-0.009,0-0.009,0-0.017,0    c-18.057,0-34.219-11.435-40.235-28.424L65.971,307.2h380.058L405.06,423.825z"/><path d="M410.385,26.351c-0.094,0-0.896,0.017-1.041,0.017h-0.009c-0.008,0-0.008,0-0.008,0l-203.904,6.246    C193.195,12.629,168.499,0,140.8,0c-39.996,0-72.533,26.795-72.533,59.733s32.538,59.733,72.533,59.733    c27.665,0,52.395-12.629,64.691-32.614l203.853,6.238c18.125,0.674,33.809-13.943,34.372-32.307    c0.009-0.094,0.017-0.956,0.017-1.05C443.742,41.344,428.783,26.368,410.385,26.351z M410.377,76.049    c-0.171,0-0.333-0.009-0.512-0.009l-209.067-6.4c-3.328-0.111-6.477,1.775-7.945,4.804C184.755,91.17,163.84,102.4,140.8,102.4    c-30.583,0-55.467-19.14-55.467-42.667s24.883-42.667,55.467-42.667c23.057,0,43.938,11.221,51.959,27.93    c1.459,3.046,4.668,4.966,7.953,4.838l209.143-6.4l-0.256-8.533l0.785,8.525c8.994,0,16.299,7.322,16.282,16.828    C426.402,69.069,419.14,76.049,410.377,76.049z"/><path d="M165.606,61.397l-5.274,3.891c-13.116,9.882-31.761,8.576-43.358-3.055L104.9,74.291    c9.685,9.702,22.613,14.669,35.584,14.669c10.564,0,21.154-3.285,30.054-9.993l5.205-3.84L165.606,61.397z"/><path d="M179.2,93.867V179.2c0,4.702-3.831,8.533-8.533,8.533c-4.702,0-8.533-3.831-8.533-8.533v-25.6    c0-14.114-11.486-25.6-25.6-25.6s-25.6,11.486-25.6,25.6v8.533c0,4.702-3.831,8.533-8.533,8.533c-4.702,0-8.533-3.831-8.533-8.533    v-76.8H76.8v76.8c0,14.114,11.486,25.6,25.6,25.6s25.6-11.486,25.6-25.6V153.6c0-4.702,3.831-8.533,8.533-8.533    c4.702,0,8.533,3.831,8.533,8.533v25.6c0,14.114,11.486,25.6,25.6,25.6s25.6-11.486,25.6-25.6V93.867H179.2z"/><path d="M486.4,256H25.6C11.486,256,0,267.486,0,281.6s11.486,25.6,25.6,25.6h460.8c14.114,0,25.6-11.486,25.6-25.6    S500.514,256,486.4,256z M486.4,290.133H25.6c-4.702,0-8.533-3.823-8.533-8.533s3.831-8.533,8.533-8.533h460.8    c4.71,0,8.533,3.823,8.533,8.533S491.11,290.133,486.4,290.133z"/><path d="M263.603,193.656c6.135-6.178,9.506-14.379,9.481-23.083c-0.026-8.713-3.439-16.887-9.574-22.98    c-6.042-6.101-6.042-16.026,0-22.118c3.319-3.345,3.302-8.747-0.051-12.066c-3.354-3.319-8.755-3.302-12.066,0.051    c-12.612,12.723-12.612,33.425,0.043,46.191c2.944,2.935,4.565,6.827,4.582,10.974s-1.596,8.055-4.625,11.102    c-12.621,12.723-12.621,33.425,0,46.148c1.664,1.681,3.866,2.526,6.059,2.526c2.176,0,4.343-0.828,6.008-2.466    c3.354-3.319,3.371-8.721,0.051-12.066C257.468,209.766,257.468,199.842,263.603,193.656z"/><path d="M348.937,193.664c6.135-6.178,9.506-14.379,9.481-23.083c-0.026-8.713-3.439-16.887-9.574-22.98    c-6.042-6.101-6.042-16.026,0-22.118c3.319-3.354,3.302-8.755-0.051-12.075c-3.354-3.319-8.747-3.302-12.066,0.051    c-12.612,12.723-12.612,33.425,0.043,46.191c2.944,2.935,4.565,6.827,4.582,10.974c0.017,4.147-1.596,8.055-4.625,11.102    c-12.621,12.723-12.621,33.425,0,46.148c1.664,1.681,3.857,2.526,6.059,2.526c2.176,0,4.344-0.828,6.008-2.449    c3.354-3.328,3.371-8.721,0.051-12.075C342.801,209.775,342.801,199.851,348.937,193.664z"/><path d="M306.27,193.656c6.135-6.178,9.506-14.379,9.481-23.083c-0.026-8.713-3.439-16.887-9.617-23.023    c-3.345-3.319-8.738-3.302-12.066,0.034c-3.328,3.345-3.311,8.747,0.034,12.066c2.944,2.935,4.565,6.827,4.582,10.974    c0.017,4.147-1.596,8.055-4.625,11.102c-12.621,12.723-12.621,33.425,0,46.148c1.664,1.681,3.857,2.526,6.059,2.526    c2.176,0,4.344-0.828,6.008-2.458c3.354-3.328,3.371-8.721,0.051-12.075C300.134,209.766,300.134,199.842,306.27,193.656z"/><path d="M383.983,204.749c0.017-4.147,1.638-8.047,4.625-11.017c12.621-12.723,12.621-33.425,0-46.148    c-3.319-3.345-8.713-3.362-12.066-0.051c-3.354,3.328-3.371,8.721-0.051,12.075c6.042,6.093,6.042,16.026,0.043,22.076    c-6.178,6.135-9.591,14.31-9.617,23.023c-0.026,8.704,3.345,16.905,9.6,23.194c1.647,1.655,3.797,2.475,5.956,2.475    c2.185,0,4.378-0.845,6.05-2.517c3.337-3.328,3.294-8.772-0.026-12.109C385.579,212.804,383.966,208.896,383.983,204.749z"/></g></defs><g fi:class="KUsePattern"><pattern id="pattern_L1_1" width="350" height="350" patternUnits="userSpaceOnUse"><use xlink:href="#L1_1" x="-350" y="-350"/><use xlink:href="#L1_1" x="0" y="-350"/><use xlink:href="#L1_1" x="350" y="-350"/><use xlink:href="#L1_1" x="-350" y="0"/><use xlink:href="#L1_1" x="0" y="0"/><use xlink:href="#L1_1" x="350" y="0"/><use xlink:href="#L1_1" x="-350" y="350"/><use xlink:href="#L1_1" x="0" y="350"/><use xlink:href="#L1_1" x="350" y="350"/></pattern><rect x="0" y="0" width="100%" height="100%" fill="url(#pattern_L1_1)"/></g><g fi:class="KUsePattern"><pattern id="pattern_L1_2" width="350" height="350" patternUnits="userSpaceOnUse"><use xlink:href="#L1_2" x="-350" y="-350"/><use xlink:href="#L1_2" x="0" y="-350"/><use xlink:href="#L1_2" x="350" y="-350"/><use xlink:href="#L1_2" x="-350" y="0"/><use xlink:href="#L1_2" x="0" y="0"/><use xlink:href="#L1_2" x="350" y="0"/><use xlink:href="#L1_2" x="-350" y="350"/><use xlink:href="#L1_2" x="0" y="350"/><use xlink:href="#L1_2" x="350" y="350"/></pattern><rect x="0" y="0" width="100%" height="100%" fill="url(#pattern_L1_2)"/></g><g fi:class="KUsePattern"><pattern id="pattern_L1_3" width="350" height="350" patternUnits="userSpaceOnUse"><use xlink:href="#L1_3" x="-350" y="-350"/><use xlink:href="#L1_3" x="0" y="-350"/><use xlink:href="#L1_3" x="350" y="-350"/><use xlink:href="#L1_3" x="-350" y="0"/><use xlink:href="#L1_3" x="0" y="0"/><use xlink:href="#L1_3" x="350" y="0"/><use xlink:href="#L1_3" x="-350" y="350"/><use xlink:href="#L1_3" x="0" y="350"/><use xlink:href="#L1_3" x="350" y="350"/></pattern><rect x="0" y="0" width="100%" height="100%" fill="url(#pattern_L1_3)"/></g><g fi:class="KUsePattern"><pattern id="pattern_L1_4" width="350" height="350" patternUnits="userSpaceOnUse"><use xlink:href="#L1_4" x="-350" y="-350"/><use xlink:href="#L1_4" x="0" y="-350"/><use xlink:href="#L1_4" x="350" y="-350"/><use xlink:href="#L1_4" x="-350" y="0"/><use xlink:href="#L1_4" x="0" y="0"/><use xlink:href="#L1_4" x="350" y="0"/><use xlink:href="#L1_4" x="-350" y="350"/><use xlink:href="#L1_4" x="0" y="350"/><use xlink:href="#L1_4" x="350" y="350"/></pattern><rect x="0" y="0" width="100%" height="100%" fill="url(#pattern_L1_4)"/></g><g fi:class="KUsePattern"><pattern id="pattern_L1_5" width="350" height="350" patternUnits="userSpaceOnUse"><use xlink:href="#L1_5" x="-350" y="-350"/><use xlink:href="#L1_5" x="0" y="-350"/><use xlink:href="#L1_5" x="350" y="-350"/><use xlink:href="#L1_5" x="-350" y="0"/><use xlink:href="#L1_5" x="0" y="0"/><use xlink:href="#L1_5" x="350" y="0"/><use xlink:href="#L1_5" x="-350" y="350"/><use xlink:href="#L1_5" x="0" y="350"/><use xlink:href="#L1_5" x="350" y="350"/></pattern><rect x="0" y="0" width="100%" height="100%" fill="url(#pattern_L1_5)"/></g><g fi:class="KUsePattern"><pattern id="pattern_L1_6" width="350" height="350" patternUnits="userSpaceOnUse"><use xlink:href="#L1_6" x="-350" y="-350"/><use xlink:href="#L1_6" x="0" y="-350"/><use xlink:href="#L1_6" x="350" y="-350"/><use xlink:href="#L1_6" x="-350" y="0"/><use xlink:href="#L1_6" x="0" y="0"/><use xlink:href="#L1_6" x="350" y="0"/><use xlink:href="#L1_6" x="-350" y="350"/><use xlink:href="#L1_6" x="0" y="350"/><use xlink:href="#L1_6" x="350" y="350"/></pattern><rect x="0" y="0" width="100%" height="100%" fill="url(#pattern_L1_6)"/></g><g fi:class="KUsePattern"><pattern id="pattern_L1_7" width="350" height="350" patternUnits="userSpaceOnUse"><use xlink:href="#L1_7" x="-350" y="-350"/><use xlink:href="#L1_7" x="0" y="-350"/><use xlink:href="#L1_7" x="350" y="-350"/><use xlink:href="#L1_7" x="-350" y="0"/><use xlink:href="#L1_7" x="0" y="0"/><use xlink:href="#L1_7" x="350" y="0"/><use xlink:href="#L1_7" x="-350" y="350"/><use xlink:href="#L1_7" x="0" y="350"/><use xlink:href="#L1_7" x="350" y="350"/></pattern><rect x="0" y="0" width="100%" height="100%" fill="url(#pattern_L1_7)"/></g><g fi:class="KUsePattern"><pattern id="pattern_L1_8" width="350" height="350" patternUnits="userSpaceOnUse"><use xlink:href="#L1_8" x="-350" y="-350"/><use xlink:href="#L1_8" x="0" y="-350"/><use xlink:href="#L1_8" x="350" y="-350"/><use xlink:href="#L1_8" x="-350" y="0"/><use xlink:href="#L1_8" x="0" y="0"/><use xlink:href="#L1_8" x="350" y="0"/><use xlink:href="#L1_8" x="-350" y="350"/><use xlink:href="#L1_8" x="0" y="350"/><use xlink:href="#L1_8" x="350" y="350"/></pattern><rect x="0" y="0" width="100%" height="100%" fill="url(#pattern_L1_8)"/></g><g fi:class="KUsePattern"><pattern id="pattern_L1_10" width="350" height="350" patternUnits="userSpaceOnUse"><use xlink:href="#L1_10" x="-350" y="-350"/><use xlink:href="#L1_10" x="0" y="-350"/><use xlink:href="#L1_10" x="350" y="-350"/><use xlink:href="#L1_10" x="-350" y="0"/><use xlink:href="#L1_10" x="0" y="0"/><use xlink:href="#L1_10" x="350" y="0"/><use xlink:href="#L1_10" x="-350" y="350"/><use xlink:href="#L1_10" x="0" y="350"/><use xlink:href="#L1_10" x="350" y="350"/></pattern><rect x="0" y="0" width="100%" height="100%" fill="url(#pattern_L1_10)"/></g><g fi:class="KUsePattern"><pattern id="pattern_L1_12" width="350" height="350" patternUnits="userSpaceOnUse"><use xlink:href="#L1_12" x="-350" y="-350"/><use xlink:href="#L1_12" x="0" y="-350"/><use xlink:href="#L1_12" x="350" y="-350"/><use xlink:href="#L1_12" x="-350" y="0"/><use xlink:href="#L1_12" x="0" y="0"/><use xlink:href="#L1_12" x="350" y="0"/><use xlink:href="#L1_12" x="-350" y="350"/><use xlink:href="#L1_12" x="0" y="350"/><use xlink:href="#L1_12" x="350" y="350"/></pattern><rect x="0" y="0" width="100%" height="100%" fill="url(#pattern_L1_12)"/></g></svg>